<svg width="21" height="20" viewBox="0 0 21 20" fill="none" xmlns="http://www.w3.org/2000/svg">
<path fill-rule="evenodd" clip-rule="evenodd" d="M6.72081 0.888252C7.69831 0.843252 8.00998 0.833252 10.5 0.833252C12.99 0.833252 13.3016 0.844085 14.2783 0.888252C15.255 0.932419 15.9216 1.08825 16.505 1.31409C17.1158 1.54492 17.67 1.90575 18.1283 2.37242C18.595 2.82992 18.955 3.38325 19.185 3.99492C19.4116 4.57825 19.5666 5.24492 19.6116 6.21992C19.6566 7.19909 19.6666 7.51075 19.6666 9.99992C19.6666 12.4899 19.6558 12.8016 19.6116 13.7791C19.5675 14.7541 19.4116 15.4208 19.185 16.0041C18.955 16.6158 18.5944 17.1701 18.1283 17.6283C17.67 18.0949 17.1158 18.4549 16.505 18.6849C15.9216 18.9116 15.255 19.0666 14.28 19.1116C13.3016 19.1566 12.99 19.1666 10.5 19.1666C8.00998 19.1666 7.69831 19.1558 6.72081 19.1116C5.74581 19.0674 5.07915 18.9116 4.49581 18.6849C3.88408 18.4549 3.32983 18.0943 2.87165 17.6283C2.4053 17.1705 2.04441 16.6165 1.81415 16.0049C1.58831 15.4216 1.43331 14.7549 1.38831 13.7799C1.34331 12.8008 1.33331 12.4891 1.33331 9.99992C1.33331 7.50992 1.34415 7.19825 1.38831 6.22159C1.43248 5.24492 1.58831 4.57825 1.81415 3.99492C2.04475 3.38332 2.40591 2.82935 2.87248 2.37159C3.33001 1.90534 3.88371 1.54445 4.49498 1.31409C5.07831 1.08825 5.74498 0.933252 6.71998 0.888252H6.72081ZM14.2041 2.53825C13.2375 2.49409 12.9475 2.48492 10.5 2.48492C8.05248 2.48492 7.76248 2.49409 6.79581 2.53825C5.90165 2.57909 5.41665 2.72825 5.09331 2.85409C4.66581 3.02075 4.35998 3.21825 4.03915 3.53909C3.73502 3.83496 3.50096 4.19515 3.35415 4.59325C3.22831 4.91659 3.07915 5.40159 3.03831 6.29575C2.99415 7.26242 2.98498 7.55242 2.98498 9.99992C2.98498 12.4474 2.99415 12.7374 3.03831 13.7041C3.07915 14.5983 3.22831 15.0833 3.35415 15.4066C3.50081 15.8041 3.73498 16.1649 4.03915 16.4608C4.33498 16.7649 4.69581 16.9991 5.09331 17.1458C5.41665 17.2716 5.90165 17.4208 6.79581 17.4616C7.76248 17.5058 8.05165 17.5149 10.5 17.5149C12.9483 17.5149 13.2375 17.5058 14.2041 17.4616C15.0983 17.4208 15.5833 17.2716 15.9066 17.1458C16.3341 16.9791 16.64 16.7816 16.9608 16.4608C17.265 16.1649 17.4991 15.8041 17.6458 15.4066C17.7716 15.0833 17.9208 14.5983 17.9616 13.7041C18.0058 12.7374 18.015 12.4474 18.015 9.99992C18.015 7.55242 18.0058 7.26242 17.9616 6.29575C17.9208 5.40159 17.7716 4.91659 17.6458 4.59325C17.4791 4.16575 17.2816 3.85992 16.9608 3.53909C16.6649 3.23498 16.3047 3.00093 15.9066 2.85409C15.5833 2.72825 15.0983 2.57909 14.2041 2.53825ZM9.32915 12.8258C9.98303 13.0979 10.7111 13.1347 11.3891 12.9297C12.067 12.7247 12.6528 12.2907 13.0463 11.7018C13.4398 11.1129 13.6167 10.4056 13.5467 9.70084C13.4767 8.99604 13.1642 8.3374 12.6625 7.83742C12.3427 7.51782 11.956 7.2731 11.5303 7.12088C11.1045 6.96865 10.6503 6.91272 10.2004 6.9571C9.75045 7.00148 9.31594 7.14507 8.92815 7.37753C8.54036 7.60999 8.20893 7.92554 7.95773 8.30146C7.70653 8.67738 7.5418 9.10433 7.47541 9.55155C7.40902 9.99878 7.44261 10.4552 7.57376 10.8878C7.70492 11.3205 7.93038 11.7188 8.23391 12.0539C8.53745 12.3889 8.9115 12.6526 9.32915 12.8258ZM7.16831 6.66825C7.60583 6.23073 8.12525 5.88367 8.6969 5.64689C9.26854 5.4101 9.88123 5.28823 10.5 5.28823C11.1187 5.28823 11.7314 5.4101 12.3031 5.64689C12.8747 5.88367 13.3941 6.23073 13.8316 6.66825C14.2692 7.10577 14.6162 7.62519 14.853 8.19683C15.0898 8.76848 15.2117 9.38117 15.2117 9.99992C15.2117 10.6187 15.0898 11.2314 14.853 11.803C14.6162 12.3747 14.2692 12.8941 13.8316 13.3316C12.948 14.2152 11.7496 14.7116 10.5 14.7116C9.25036 14.7116 8.05193 14.2152 7.16831 13.3316C6.2847 12.448 5.78829 11.2495 5.78829 9.99992C5.78829 8.7503 6.2847 7.55187 7.16831 6.66825ZM16.2566 5.98992C16.3651 5.88764 16.4519 5.76465 16.5119 5.62823C16.5719 5.49181 16.604 5.34473 16.6062 5.19569C16.6083 5.04666 16.5806 4.89871 16.5246 4.76059C16.4685 4.62248 16.3853 4.49701 16.2799 4.39162C16.1746 4.28623 16.0491 4.20305 15.911 4.14702C15.7729 4.09098 15.6249 4.06323 15.4759 4.0654C15.3268 4.06758 15.1798 4.09963 15.0433 4.15967C14.9069 4.2197 14.7839 4.3065 14.6816 4.41492C14.4827 4.62578 14.3738 4.90585 14.3781 5.19569C14.3823 5.48553 14.4993 5.76232 14.7043 5.96729C14.9092 6.17226 15.186 6.28928 15.4759 6.2935C15.7657 6.29773 16.0458 6.18883 16.2566 5.98992Z" fill="black"/>
</svg>
