<svg width="21" height="20" viewBox="0 0 21 20" fill="none" xmlns="http://www.w3.org/2000/svg">
<path fill-rule="evenodd" clip-rule="evenodd" d="M8.35752 7.47425H11.4525V9.01591C11.8984 8.12925 13.0417 7.33258 14.7592 7.33258C18.0517 7.33258 18.8334 9.09758 18.8334 12.3359V18.3334H15.5V13.0734C15.5 11.2292 15.0542 10.1892 13.9192 10.1892C12.345 10.1892 11.6909 11.3101 11.6909 13.0726V18.3334H8.35752V7.47425ZM2.64169 18.1917H5.97502V7.33258H2.64169V18.1917ZM6.45252 3.79175C6.45264 4.07114 6.39723 4.34778 6.28951 4.60557C6.18179 4.86336 6.0239 5.09718 5.82502 5.29342C5.42202 5.69393 4.87653 5.91813 4.30835 5.91675C3.74118 5.91637 3.19695 5.69275 2.79335 5.29425C2.5952 5.09734 2.43784 4.86327 2.33031 4.60544C2.22277 4.34761 2.16717 4.0711 2.16669 3.79175C2.16669 3.22758 2.39169 2.68758 2.79419 2.28925C3.19742 1.89021 3.74189 1.6665 4.30919 1.66675C4.87752 1.66675 5.42252 1.89091 5.82502 2.28925C6.22669 2.68758 6.45252 3.22758 6.45252 3.79175Z" fill="black"/>
</svg>
