<svg width="89" height="17" viewBox="0 0 89 17" fill="none" xmlns="http://www.w3.org/2000/svg">
<path d="M8.70184 12.9423H6.09571V7.06748V6.53742C6.09571 5.91902 5.91902 5.52147 5.56564 5.21227C5.21227 4.94724 4.81472 4.81473 4.32883 4.81473C3.84295 4.81473 3.48957 4.94724 3.1362 5.21227C2.78282 5.4773 2.60614 5.91902 2.60614 6.53742V12.8982H0V7.06748C0 5.38896 0.441718 4.24049 1.32515 3.66626C2.20859 3.09202 3.18037 2.78282 4.28466 2.73865C4.8589 2.73865 5.43313 2.78282 5.96319 2.91534C6.49325 3.04786 7.02331 3.26871 7.46503 3.66626C7.8184 3.35705 8.30429 3.09203 8.79018 2.95951C9.32024 2.82699 9.85031 2.73865 10.3804 2.69448C11.4847 2.69448 12.5006 3.00368 13.4282 3.57792C14.3558 4.15215 14.7975 5.34478 14.7975 7.06748V12.8982H13.4724C13.119 12.8982 12.8098 12.7656 12.5448 12.5448C12.3239 12.3239 12.1914 12.0147 12.1914 11.6172V6.53742C12.1914 5.91902 12.0147 5.52147 11.6613 5.21227C11.308 4.94724 10.9104 4.81473 10.4245 4.81473C9.93865 4.81473 9.58528 4.94724 9.18773 5.21227C8.83436 5.4773 8.65767 5.91902 8.65767 6.53742V7.06748V12.9423H8.70184ZM24.5595 2.91534V8.79018C24.5595 10.5571 24.1178 11.7497 23.1902 12.2798C22.2626 12.8098 21.2466 13.119 20.1423 13.119C19.0822 13.0748 18.0663 12.7656 17.1828 12.2356C16.2994 11.7055 15.8577 10.5571 15.8577 8.83436V2.91534H18.4638V9.32025C18.4638 9.93865 18.6405 10.3362 18.9939 10.6454C19.3472 10.9104 19.7448 11.0429 20.1865 11.0429C20.6282 11.0429 21.0258 10.9104 21.4233 10.6454C21.7767 10.3804 21.9534 9.93865 21.9534 9.32025V4.19632C21.9534 3.84294 22.0859 3.53374 22.3067 3.31288C22.5276 3.04785 22.8368 2.95951 23.2344 2.95951H24.5595V2.91534ZM25.3988 9.62945H27.9607C28.0049 10.1153 28.1816 10.5129 28.535 10.7337C28.8883 10.9988 29.4184 11.0871 30.0368 11.0871C30.4785 11.0871 30.8761 10.9988 31.1853 10.8221C31.4945 10.6454 31.627 10.4245 31.627 10.1153C31.627 9.67362 31.0969 9.32025 30.0368 9.09939C29.5951 9.01104 29.2417 8.96687 29.0209 8.87853C27.6957 8.56933 26.8123 8.17178 26.3706 7.73006C25.8847 7.28834 25.6196 6.66994 25.6196 5.91902C25.6196 4.99141 25.973 4.19632 26.7239 3.57792C27.4748 3.00368 28.4466 2.69448 29.6393 2.69448C30.9202 2.69448 31.9804 3.00368 32.7313 3.57792C33.438 4.19632 33.8356 5.03558 33.8798 6.00736H32.2454C31.7595 6.00736 31.4061 5.7865 31.1411 5.38896C31.0528 5.30061 30.9202 5.1681 30.8319 5.07975C30.5227 4.8589 30.1252 4.72638 29.5951 4.72638C29.1092 4.72638 28.7117 4.81472 28.4908 4.94724C28.2699 5.07976 28.1374 5.30061 28.1374 5.60982C28.1374 6.22822 29.8601 6.58159 30.081 6.62577C30.081 6.62577 30.2577 6.66994 30.4785 6.71411C30.4785 6.71411 30.6552 6.75828 30.8319 6.80246C31.8479 7.02331 32.7755 7.24417 33.4822 7.90675C33.9681 8.34847 34.189 8.96687 34.189 9.71779C34.189 10.8221 33.7914 11.6613 32.9963 12.2798C32.2454 12.8098 31.1411 13.119 29.6393 13.119C28.2258 13.119 27.1656 12.8098 26.4589 12.2356C25.7521 11.6613 25.3546 10.8221 25.3546 9.71779V9.62945H25.3988ZM34.9841 0.0441745H36.3534C36.7067 0.0441745 37.0159 0.176689 37.2368 0.397548C37.5018 0.662578 37.5902 0.927609 37.5902 1.28098V2.07607H34.9841V0.0441745ZM34.9841 2.91534H36.3534C36.7067 2.91534 37.0159 3.04785 37.2368 3.26871C37.5018 3.53374 37.5902 3.79877 37.5902 4.15215V12.8982H34.9841V2.91534ZM45.8061 9.85031H47.6614C47.3963 10.9104 46.8663 11.7055 46.0712 12.2356C45.2761 12.8098 44.3043 13.119 43.1558 13.119C41.7423 13.119 40.638 12.6773 39.7988 11.7497C39.0037 10.8663 38.6061 9.54111 38.6061 7.90675C38.6061 6.31657 39.0037 5.03558 39.7546 4.15215C40.5497 3.22454 41.654 2.78282 43.1117 2.78282C44.6135 2.78282 45.762 3.22454 46.6012 4.15215C47.0429 4.68221 47.3963 5.34479 47.573 6.05153H44.9669C44.8344 5.7865 44.7018 5.60982 44.6135 5.4773C44.3043 5.12393 43.8184 4.94724 43.2442 4.94724C42.7141 4.94724 42.2282 5.12393 41.8748 5.4773C41.4331 5.96319 41.2123 6.80245 41.2123 7.95092C41.2123 9.09939 41.4331 9.89448 41.8748 10.3804C42.184 10.7779 42.6699 10.9988 43.3325 10.9988C43.7742 10.9988 44.1276 10.9104 44.4368 10.7337C44.5252 10.6896 44.5693 10.6454 44.6577 10.6012C44.7018 10.5571 44.7902 10.4687 44.8785 10.3804C44.9227 10.292 45.011 10.2037 45.1877 10.0712C45.3202 9.89448 45.5411 9.85031 45.8061 9.85031ZM68.3779 12.5006C67.8479 12.7656 67.3178 12.9423 66.6994 12.9865C66.1252 13.0307 65.5951 13.0748 65.1534 13.0748C64.2699 13.0748 63.4748 12.8098 62.8123 12.3239C62.1497 11.838 61.7963 11.0429 61.7963 9.89448C61.7963 8.83436 62.1055 8.08343 62.7239 7.64172C63.3423 7.2 64.1374 6.8908 65.065 6.75828C65.1975 6.75828 65.3301 6.75828 65.5068 6.71411C65.6834 6.66994 65.8601 6.62577 66.1252 6.62577C67.2295 6.49325 67.7595 6.13988 67.7595 5.65399C67.7595 5.30061 67.5828 5.03558 67.1853 4.90307C66.7877 4.77055 66.4344 4.72638 66.1252 4.72638C65.7718 4.72638 65.4626 4.77055 65.1975 4.8589C64.9325 4.94724 64.7117 5.1681 64.5791 5.43313H62.0614C62.1497 4.63804 62.5031 4.01963 63.1215 3.53374C63.7841 2.95951 64.7558 2.65031 65.9926 2.65031C67.4061 2.65031 68.4221 2.87117 69.1288 3.35706C69.8356 3.84295 70.2331 4.54969 70.2331 5.4773V8.87853C70.2331 9.89448 70.0564 10.6454 69.7031 11.2196C69.3497 11.838 68.908 12.2798 68.3779 12.5006ZM67.8037 7.90675C67.4503 8.08344 66.9644 8.26012 66.346 8.39264L65.4626 8.56933C65.0209 8.70184 64.6675 8.87853 64.4908 9.05521C64.3141 9.32024 64.2258 9.58528 64.2258 9.89448C64.2258 10.2479 64.3583 10.5571 64.5791 10.7779C64.8 10.9988 65.1092 11.0871 65.5509 11.0871C66.2577 11.0871 66.7877 10.8663 67.1853 10.4687C67.5828 10.0712 67.8037 9.49693 67.8037 8.83436V7.90675ZM71.2933 0H72.6626C73.016 0 73.3252 0.132514 73.546 0.353373C73.811 0.574232 73.8994 0.883435 73.8994 1.23681V12.8982H71.2933V0ZM75.0037 0H76.373C76.7264 0 77.0356 0.132514 77.2564 0.353373C77.5215 0.574232 77.6098 0.883435 77.6098 1.23681V12.8982H75.0037V0ZM80.0834 14.3558H80.7902C81.2761 14.3558 81.6736 14.2233 81.9828 14.0025C82.292 13.7816 82.3362 13.3841 82.1595 12.854L78.6699 2.91534H81.5411L83.573 9.98282L85.3399 3.84295C85.4724 3.22454 85.8699 2.95951 86.5325 2.95951H88.3436L84.5006 14.3117C84.1914 15.1509 83.838 15.7252 83.3963 16.0785C82.9546 16.3877 82.2037 16.5202 81.1877 16.5202C81.1436 16.5202 81.0552 16.5202 80.9227 16.5202C80.5693 16.5202 80.0834 16.5202 80.0834 16.5202V14.3558Z" fill="#00C1F2"/>
<path d="M52.8097 13.0307C51.7917 13.0307 51 12.1031 51 10.9546C51 9.76196 51.7917 8.87852 52.8097 8.87852C53.79 8.87852 54.5817 9.80613 54.5817 10.9546C54.5817 12.1472 53.8277 13.0307 52.8097 13.0307ZM52.772 2.73865C53.79 2.73865 54.5817 3.66625 54.5817 4.81472C54.5817 5.96319 53.7523 6.93497 52.772 6.93497C51.7917 6.93497 51 6.00736 51 4.8589C51 3.71043 51.7917 2.73865 52.772 2.73865ZM57.3717 15.8135H56.5422C56.316 15.8135 56.1652 15.5485 56.2783 15.2834C56.8815 13.7816 57.6733 11.1755 57.6733 7.86258C57.6733 4.54969 56.8815 1.98773 56.2783 0.441718C56.1652 0.265031 56.316 0 56.5422 0H57.4094C57.711 0 57.9749 0.176685 58.088 0.485888C58.7289 1.89938 59.6715 4.50552 59.6715 7.90674C59.6715 11.308 58.7289 13.9583 58.088 15.3276C57.9372 15.6368 57.6733 15.8135 57.3717 15.8135Z" fill="#787878"/>
</svg>
