<svg width="261" height="56" viewBox="0 0 261 56" fill="none" xmlns="http://www.w3.org/2000/svg">
<g clip-path="url(#clip0_10_164)">
<path d="M42.8367 0.470947C46.7932 1.1556 49.1657 4.00853 49.1698 8.14023C49.1795 17.9613 49.1733 27.7823 49.1733 37.6033C49.1734 41.3201 49.1731 45.0369 49.173 48.7537C49.1729 49.049 49.173 49.3443 49.173 49.6864C46.6248 49.6864 44.1322 49.6864 41.5338 49.6864C41.5338 49.3772 41.5338 49.0652 41.5338 48.7532C41.5338 36.1921 41.534 23.6309 41.5337 11.0698C41.5336 8.98895 40.7205 8.16873 38.6597 8.16701C38.3365 8.16674 38.0124 8.15453 37.6903 8.17344C36.3367 8.25291 35.4549 9.16115 35.408 10.5248C35.3931 10.9583 35.4046 11.3928 35.4046 11.8269C35.4044 21.9464 35.4108 32.0658 35.4007 42.1853C35.397 45.8931 33.2424 48.6394 29.6646 49.5361C29.2505 49.6399 28.8147 49.7013 28.3885 49.7035C25.8844 49.716 23.3759 49.7981 20.8771 49.6804C17.037 49.4993 14.1962 46.5676 14.027 42.7103C13.9522 41.0043 13.9964 39.2928 13.996 37.5838C13.994 28.7395 13.9917 19.8951 13.9992 11.0508C14.0001 9.96621 13.8563 8.91382 12.7655 8.43659C11.5742 7.91539 10.2872 7.93409 9.08692 8.43222C8.28585 8.76467 7.89032 9.49378 7.88656 10.3911C7.88077 11.7747 7.88042 13.1583 7.88037 14.5419C7.87996 25.9364 7.88014 37.331 7.88015 48.7256C7.88015 49.0228 7.88015 49.32 7.88015 49.7091C5.32423 49.7091 2.80272 49.7091 0.221412 49.7615C0.161621 49.7416 0.161621 49.6692 0.21869 49.5041C0.291414 49.2236 0.320706 49.0358 0.320784 48.8481C0.326548 34.9783 0.330679 21.1086 0.32649 7.23885C0.326433 7.05068 0.218959 6.86255 0.161621 6.67441C0.161621 6.67441 0.161621 6.59301 0.219476 6.53329C1.09053 3.08112 3.16273 1.03612 6.68912 0.478957C9.57821 0.481617 12.3916 0.471809 15.2691 0.473249C16.0994 0.719818 16.9236 0.843427 17.6219 1.21017C20.3639 2.65026 21.636 5.0223 21.6424 8.09557C21.6558 14.6304 21.6464 21.1653 21.6465 27.7002C21.6465 31.6319 21.641 35.5637 21.6496 39.4955C21.6531 41.0869 22.5732 42.0014 24.1559 42.0264C24.3712 42.0298 24.5866 42.027 24.802 42.0269C26.9573 42.0259 27.7737 41.2066 27.7737 39.0408C27.7742 28.7097 27.8333 18.3781 27.7436 8.04787C27.7101 4.18879 30.4352 0.943981 34.166 0.484469C37.1066 0.488092 39.9716 0.479519 42.8367 0.470947Z" fill="#010101"/>
<path d="M15.2051 0.461958C12.3916 0.471767 9.57821 0.481575 6.64555 0.427148C4.40476 0.35045 2.28319 0.337989 0.161621 0.325527C0.188556 0.271264 0.212677 0.171885 0.242877 0.169973C0.45751 0.156388 0.673386 0.162736 0.888866 0.162736C87.6464 0.162736 174.404 0.162736 261.162 0.244132C254.974 0.320481 248.787 0.314572 242.599 0.314646C242.417 0.314648 242.236 0.37771 241.922 0.437774C239.307 0.474878 236.824 0.485576 234.341 0.496272C234.257 0.438644 234.173 0.330396 234.089 0.33082C232.148 0.340654 230.207 0.36227 228.151 0.423934C227.957 0.464299 227.876 0.460804 227.795 0.460803C195.559 0.460435 163.323 0.460162 131.087 0.462607C130.82 0.462627 130.552 0.499448 130.285 0.519086C130.229 0.463819 130.173 0.359983 130.117 0.360312C128.16 0.37187 126.204 0.393213 124.114 0.438811C121.498 0.476443 119.014 0.488439 116.531 0.500436C116.259 0.43706 115.987 0.318284 115.715 0.318188C91.6623 0.309682 67.6095 0.31018 43.5568 0.312361C43.3434 0.31238 43.13 0.343396 42.8766 0.415423C39.9716 0.479477 37.1066 0.48805 34.1265 0.428503C33.9061 0.343837 33.8008 0.312855 33.6954 0.31281C27.731 0.310244 21.7667 0.308784 15.8023 0.316402C15.6032 0.316656 15.4041 0.411308 15.2051 0.461958Z" fill="#A4ACB3"/>
<path d="M0.161621 6.75073C0.218959 6.86259 0.326433 7.05072 0.32649 7.23888C0.330679 21.1086 0.326548 34.9784 0.320784 48.8481C0.320706 49.0359 0.291414 49.2236 0.21869 49.4499C0.161621 35.2679 0.161621 21.0475 0.161621 6.75073Z" fill="#555555"/>
<path d="M130.282 0.593434C130.552 0.499456 130.82 0.462635 131.087 0.462615C163.323 0.46017 195.559 0.460442 227.795 0.460811C227.876 0.460811 227.957 0.464307 228.111 0.48199C228.185 3.01592 228.185 5.53404 228.185 8.13644C207.79 8.13644 187.424 8.13644 167.003 8.13644C167.003 22.0181 167.003 35.8154 167.003 49.6725C164.439 49.6725 161.929 49.6725 159.353 49.6725C159.353 35.8494 159.353 22.0278 159.353 8.16028C149.657 8.16028 140.024 8.16028 130.28 8.16028C130.28 5.63319 130.28 3.15048 130.282 0.593434Z" fill="black"/>
<path d="M200.371 20.0942C200.394 23.3563 200.617 26.5682 200.357 29.74C200.078 33.1398 196.95 35.7646 193.532 35.8172C189.601 35.8777 185.669 35.8377 181.737 35.8412C181.448 35.8415 181.159 35.8413 180.836 35.8413C180.836 37.3234 180.768 38.7313 180.857 40.1292C180.929 41.2541 181.958 41.9983 183.213 41.9989C188.222 42.0017 193.231 42.0001 198.241 42.0001C198.506 42.0001 198.771 42.0001 199.082 42.0001C199.082 44.5511 199.082 47.0596 199.082 49.6396C198.876 49.6522 198.645 49.6778 198.415 49.6786C192.571 49.6977 186.727 49.7186 180.883 49.73C176.208 49.7391 173.118 46.6509 173.114 41.963C173.107 35.2623 173.106 28.5616 173.114 21.8609C173.119 17.4584 176.201 14.3262 180.569 14.3031C184.663 14.2815 188.757 14.2948 192.85 14.2995C196.714 14.3038 199.293 16.2754 200.371 20.0942ZM190.846 28.128C191.918 28.0077 192.778 27.4541 192.906 26.3906C193.069 25.0397 193.445 23.5281 192.104 22.4762C191.766 22.2114 191.28 22.0096 190.859 22.0028C188.224 21.9603 185.588 21.9631 182.952 21.9901C181.908 22.0009 180.923 22.7991 180.862 23.7824C180.773 25.2043 180.839 26.636 180.839 28.1351C184.152 28.1351 187.427 28.1351 190.846 28.128Z" fill="#010101"/>
<path d="M234.336 0.572011C236.824 0.485668 239.307 0.47497 241.865 0.475612C241.941 5.06309 241.941 9.63923 241.941 14.2985C242.3 14.2985 242.562 14.2985 242.823 14.2985C245.624 14.2985 248.424 14.2913 251.225 14.3002C255.613 14.3143 258.741 17.2521 258.777 21.6646C258.853 30.9134 258.8 40.1632 258.798 49.4126C258.798 49.4887 258.766 49.5647 258.739 49.6848C256.24 49.6848 253.747 49.6848 251.15 49.6848C251.15 49.4109 251.15 49.124 251.15 48.8372C251.15 40.8355 251.15 32.8338 251.149 24.8322C251.149 22.7962 250.337 21.9771 248.326 21.9768C246.231 21.9764 244.137 21.9767 241.966 21.9767C241.966 31.2455 241.966 40.4526 241.966 49.6959C239.396 49.6959 236.902 49.6959 234.33 49.6959C234.33 33.3469 234.33 16.9973 234.336 0.572011Z" fill="#010101"/>
<path d="M110.39 17.256C110.39 18.8529 110.39 20.3684 110.39 21.9769C110.071 21.9769 109.785 21.9769 109.499 21.9769C105.083 21.9769 100.667 21.9752 96.2506 21.9777C94.4418 21.9788 93.6441 22.8492 93.5564 24.6474C93.4192 27.4622 94.4153 28.2909 97.024 28.1853C99.578 28.0819 102.139 28.1606 104.698 28.1633C108.998 28.1678 111.894 31.045 111.934 35.3758C111.956 37.7897 111.962 40.2042 111.932 42.6179C111.883 46.6958 109.102 49.6558 105.068 49.7087C98.7953 49.791 92.5204 49.7308 86.2462 49.7286C86.169 49.7286 86.0917 49.6968 85.9696 49.6699C85.9696 47.1367 85.9696 44.6036 85.9696 42C86.2695 42 86.5596 42 86.8498 42C91.993 42 97.1362 42.0005 102.279 41.9997C103.942 41.9995 104.855 41.0801 104.873 39.3932C104.903 36.4763 104.285 35.8414 101.419 35.8414C98.5918 35.8414 95.7644 35.8455 92.937 35.8404C89.3312 35.8338 86.1099 32.8138 85.9739 29.174C85.8717 26.4385 85.8719 23.6938 85.9617 20.9577C86.0721 17.5951 88.9981 14.4586 92.3979 14.3722C98.3657 14.2207 104.34 14.3299 110.39 14.3299C110.39 15.2919 110.39 16.2333 110.39 17.256Z" fill="#010101"/>
<path d="M55.2916 25.5582C55.2916 21.7908 55.2916 18.1049 55.2916 14.3583C57.8417 14.3583 60.356 14.3583 62.9673 14.3583C62.9673 14.6349 62.9673 14.9244 62.9673 15.214C62.9675 23.1346 62.9673 31.0552 62.969 38.9759C62.9691 39.301 62.9675 39.628 62.9994 39.9509C63.1174 41.1428 64.0133 41.9827 65.2078 41.9955C66.7157 42.0116 68.2238 42.0038 69.7318 41.9981C71.1322 41.9929 72.075 41.1046 72.1134 39.6969C72.1496 38.3687 72.1268 37.0388 72.1268 35.7097C72.1272 28.9012 72.1266 22.0927 72.1264 15.2843C72.1264 14.9905 72.1264 14.6967 72.1264 14.3506C74.6961 14.3506 77.2095 14.3506 79.806 14.3506C79.806 14.6266 79.806 14.8898 79.806 15.153C79.806 24.0502 79.808 32.9473 79.8053 41.8445C79.8038 46.6311 76.7313 49.7269 71.9787 49.7341C68.9896 49.7386 66.0005 49.7428 63.0114 49.7331C58.3524 49.718 55.2963 46.6206 55.2928 41.9148C55.2887 36.4897 55.2917 31.0646 55.2916 25.5582Z" fill="#030303"/>
<path d="M215.028 21.9845C213.556 22.2897 212.901 23.0352 212.896 24.4631C212.881 29.4802 212.876 34.4974 212.899 39.5145C212.906 41.1259 213.844 41.9992 215.44 41.9996C219.662 42.0007 223.885 42 228.153 42C228.153 44.5757 228.153 47.1118 228.153 49.7025C227.922 49.7127 227.686 49.7324 227.449 49.7325C222.657 49.7342 217.865 49.7265 213.072 49.7366C210.306 49.7424 208.035 48.7699 206.45 46.4094C205.66 45.2331 205.269 43.9129 205.266 42.5056C205.25 35.4274 205.231 28.349 205.273 21.271C205.294 17.7282 208.321 14.444 211.839 14.358C217.247 14.226 222.661 14.3157 228.072 14.3136C228.091 14.3136 228.111 14.3455 228.164 14.3928C228.164 16.8723 228.164 19.3823 228.164 21.9809C223.803 21.9809 219.451 21.9809 215.028 21.9845Z" fill="#010101"/>
<path d="M150.459 14.2981C151.399 14.2981 152.259 14.2981 153.17 14.2981C153.17 16.8359 153.17 19.3468 153.17 21.9768C152.929 21.9768 152.648 21.9768 152.366 21.9768C148.434 21.9768 144.502 21.9747 140.571 21.9778C138.816 21.9791 137.935 22.8424 137.931 24.6096C137.92 29.5195 137.92 34.4295 137.931 39.3394C137.935 41.1549 138.809 41.9997 140.62 41.9998C144.79 41.9999 148.96 41.9998 153.176 41.9998C153.176 44.5767 153.176 47.1126 153.176 49.6815C153.023 49.6987 152.867 49.7314 152.711 49.7315C147.756 49.7342 142.801 49.7515 137.846 49.7278C134.168 49.7102 131.384 47.5894 130.533 44.174C130.364 43.4988 130.292 42.7824 130.29 42.0847C130.273 35.3031 130.271 28.5214 130.283 21.7397C130.29 17.5002 133.389 14.342 137.613 14.3065C141.868 14.2708 146.123 14.2983 150.459 14.2981Z" fill="#010101"/>
<path d="M124.157 40.2093C124.157 43.4036 124.157 46.5164 124.157 49.6807C121.614 49.6807 119.124 49.6807 116.577 49.6807C116.577 37.9384 116.577 26.1658 116.577 14.3458C119.072 14.3458 121.581 14.3458 124.157 14.3458C124.157 22.9566 124.157 31.5422 124.157 40.2093Z" fill="#010101"/>
<path d="M116.526 0.575918C119.014 0.488478 121.498 0.476481 124.058 0.475464C124.134 3.00373 124.134 5.52102 124.134 8.08877C121.628 8.08877 119.116 8.08877 116.522 8.08877C116.522 5.61357 116.522 3.13247 116.526 0.575918Z" fill="black"/>
</g>
<defs>
<clipPath id="clip0_10_164">
<rect width="261" height="56" fill="white"/>
</clipPath>
</defs>
</svg>
