<svg width="104" height="104" viewBox="0 0 104 104" fill="none" xmlns="http://www.w3.org/2000/svg">
<path d="M23.3289 70.5535L38.2455 8.96547C38.6525 7.28488 40.6019 6.5151 42.0473 7.46414L92.2828 40.4468C93.9407 41.5353 93.7317 44.0284 91.9158 44.8257L26.7637 73.4311C24.8691 74.2629 22.8419 72.5645 23.3289 70.5535Z" stroke="url(#paint0_linear_12_28)" stroke-width="3"/>
<path d="M18.3289 90.5535L33.2455 28.9655C33.6525 27.2849 35.6019 26.5151 37.0473 27.4641L87.2828 60.4468C88.9407 61.5353 88.7317 64.0284 86.9158 64.8257L21.7637 93.4311C19.8691 94.2629 17.8419 92.5645 18.3289 90.5535Z" stroke="url(#paint1_linear_12_28)" stroke-width="3"/>
<defs>
<linearGradient id="paint0_linear_12_28" x1="25.4344" y1="82.0663" x2="69.8311" y2="21.6185" gradientUnits="userSpaceOnUse">
<stop/>
<stop offset="1" stop-color="#E55603"/>
</linearGradient>
<linearGradient id="paint1_linear_12_28" x1="20.4344" y1="102.066" x2="64.8311" y2="41.6185" gradientUnits="userSpaceOnUse">
<stop/>
<stop offset="1" stop-color="#E55603"/>
</linearGradient>
</defs>
</svg>
