<svg width="104" height="104" viewBox="0 0 104 104" fill="none" xmlns="http://www.w3.org/2000/svg">
<path d="M30.7637 73.4311C28.8691 74.2629 26.8419 72.5645 27.3289 70.5535L42.2455 8.96547C42.6525 7.28489 44.6019 6.5151 46.0473 7.46414L96.2828 40.4468C97.9407 41.5353 97.7317 44.0284 95.9158 44.8257L30.7637 73.4311Z" stroke="url(#paint0_linear_105_4)" stroke-width="3"/>
<path d="M25.7637 93.1159C23.8691 93.9477 21.8419 92.2494 22.3289 90.2383L37.2455 28.6503C37.6525 26.9697 39.6019 26.1999 41.0473 27.149L91.2828 60.1316C92.9407 61.2201 92.7317 63.7132 90.9158 64.5105L25.7637 93.1159Z" stroke="url(#paint1_linear_105_4)" stroke-width="3"/>
<defs>
<linearGradient id="paint0_linear_105_4" x1="29.4344" y1="82.0663" x2="73.8311" y2="21.6185" gradientUnits="userSpaceOnUse">
<stop/>
<stop offset="1" stop-color="#E55603"/>
</linearGradient>
<linearGradient id="paint1_linear_105_4" x1="24.4344" y1="101.751" x2="68.8311" y2="41.3033" gradientUnits="userSpaceOnUse">
<stop/>
<stop offset="1" stop-color="#E55603"/>
</linearGradient>
</defs>
</svg>
