<svg width="68" height="64" viewBox="0 0 68 64" fill="none" xmlns="http://www.w3.org/2000/svg">
<g clip-path="url(#clip0_10_161)">
<path d="M46.5261 44.5201C49.0041 44.2637 50.884 42.1274 50.7986 39.5639C50.7131 37.0004 48.5769 34.9495 46.0135 34.9495H45.8426C43.1937 35.035 41.1429 37.2567 41.2284 39.9057C41.3138 41.1875 41.8265 42.2983 42.5955 43.0674C39.6903 48.7926 35.247 52.9797 28.5821 56.4832C24.0533 58.8759 19.3537 59.7304 14.654 59.1322C10.8089 58.6195 7.81818 56.9105 5.93832 54.0906C3.20398 49.9035 2.94764 45.3746 5.25473 40.8457C6.87825 37.5985 9.44169 35.2059 11.0652 34.0096C10.7234 32.8987 10.2107 31.0188 9.95438 29.6516C-2.43559 38.6239 -1.15387 50.758 2.60584 56.4832C5.42563 60.7558 11.1507 63.4048 17.4738 63.4048C19.1828 63.4048 20.8917 63.2339 22.6007 62.8066C33.538 60.6703 41.8265 54.176 46.5261 44.5201ZM61.565 33.9241C55.071 26.319 45.5008 22.1319 34.5634 22.1319H33.1963C32.4272 20.5937 30.8037 19.5683 29.0093 19.5683H28.8384C26.1895 19.6538 24.1388 21.8755 24.2242 24.5245C24.3097 27.088 26.4459 29.1389 29.0093 29.1389H29.1802C31.06 29.0534 32.6836 27.8571 33.3671 26.2335H34.9052C41.3993 26.2335 47.5515 28.1134 53.1056 31.7878C57.3781 34.6077 60.4542 38.2821 62.1631 42.7256C63.6158 46.3145 63.5303 49.818 61.9922 52.8088C59.5997 57.3377 55.5836 59.8158 50.2859 59.8158C46.8679 59.8158 43.6209 58.7904 41.912 58.0214C40.972 58.8759 39.2631 60.2431 38.0668 61.0976C41.7411 62.8066 45.5008 63.7466 49.0896 63.7466C57.2926 63.7466 63.3594 59.2177 65.6665 54.6888C68.1445 49.7326 67.9736 41.1875 61.565 33.9241ZM18.1574 45.9727C18.2428 48.5363 20.379 50.5871 22.9425 50.5871H23.1134C25.7623 50.5016 27.813 48.2799 27.7276 45.6309C27.6421 43.0674 25.5059 41.0166 22.9425 41.0166H22.7716C22.6007 41.0166 22.3443 41.0166 22.1735 41.102C18.6701 35.2913 17.2175 28.9679 17.7302 22.1319C18.0719 17.0048 19.7809 12.5613 22.7716 8.88692C25.2496 5.72523 30.0347 4.18711 33.2817 4.10166C42.3392 3.93075 46.1844 15.2103 46.4407 19.7392C47.5515 19.9956 49.4314 20.5937 50.7131 21.021C49.6877 7.1779 41.1429 0 32.9399 0C25.2496 0 18.1574 5.55433 15.3376 13.7576C11.407 24.6954 13.9704 35.2059 18.7555 43.4947C18.3283 44.0928 18.0719 45.0328 18.1574 45.9727Z" fill="#764ABC"/>
</g>
<defs>
<clipPath id="clip0_10_161">
<rect width="67.1475" height="64" fill="white"/>
</clipPath>
</defs>
</svg>
