<svg width="65" height="63" viewBox="0 0 65 63" fill="none" xmlns="http://www.w3.org/2000/svg">
<path d="M60.7571 16.2537C59.4887 14.5161 58.2203 12.7785 56.7589 10.9463C56.287 10.5389 56.0193 10.2155 55.7275 9.91451C46.8161 0.722828 32.5796 -2.23811 20.55 2.60026C19.348 3.08374 18.1582 3.59626 16.9627 4.0953C15.1043 5.38629 13.2458 6.67728 11.2814 8.15594C1.39952 17.5549 -1.60536 28.5414 2.20627 41.2569C2.77831 43.1653 3.72553 44.9666 4.49919 46.8174C5.93258 48.7811 7.36596 50.7447 8.98625 52.7974C9.27834 52.9781 9.3875 53.0659 9.48815 53.1621C19.5328 62.7665 32.7075 65.3466 45.3718 60.1871C46.3482 59.7892 47.3197 59.3799 48.2935 58.9758C50.152 57.6849 52.0105 56.3939 53.9648 54.9165C61.0097 48.4166 64.5982 40.6251 64.5897 31.3653C64.5856 26.889 63.8975 22.5018 61.4709 18.5353C61.0654 17.8723 60.9868 17.019 60.7571 16.2537ZM35.0856 57.3474C34.9733 57.3663 34.8609 57.3852 34.5544 57.4518C24.1883 58.2769 13.4615 52.8085 8.67465 42.8977C7.23385 39.9146 6.7166 36.7407 7.18687 33.4524C8.02232 27.6107 13.1816 22.2435 18.278 21.5794C18.4068 25.8657 18.1393 30.238 18.7461 34.4916C20.1795 44.5389 24.7282 52.6951 34.9114 57.0334C34.9851 57.0975 35.0587 57.1616 35.2521 57.1897C35.2525 57.2425 35.2529 57.2954 35.2533 57.3483C35.2128 57.2939 35.1723 57.2394 35.0856 57.3474ZM36.7235 52.0901C34.2401 51.1248 32.0537 49.7567 30.3179 47.7478C33.1624 46.2569 35.9695 44.937 38.6196 43.3651C44.0491 40.1444 48.5133 35.941 51.5157 30.4111C53.8745 26.0667 54.8485 21.438 54.1773 16.4752C54.4933 16.7273 54.7057 17.0067 54.9058 17.2941C60.6893 25.5992 60.6721 37.5225 54.8662 45.81C50.5841 51.9223 43.688 54.3584 36.7235 52.0901ZM25.9022 15.5044C19.6777 15.1968 13.9447 16.5577 8.86151 20.3781C8.89535 19.801 9.02936 19.3843 9.24916 19.0164C14.3489 10.4801 21.9722 5.87205 32.0829 5.60624C38.1062 5.44789 43.4093 7.39581 46.8596 12.5829C49.2598 16.1915 49.4512 20.1519 48.2871 24.3838C41.5543 19.521 34.4223 16.0847 25.9022 15.5044ZM32.3505 40.854C30.5995 41.6395 28.8485 42.4251 26.9862 43.2605C23.2749 35.9197 23.0841 28.4093 24.2706 20.6519C32.7338 20.9259 39.6111 24.4232 46.0083 29.3221C42.6368 34.5453 37.9369 38.0185 32.3505 40.854Z" fill="#E63103"/>
</svg>
