<svg width="21" height="20" viewBox="0 0 21 20" fill="none" xmlns="http://www.w3.org/2000/svg">
<g clip-path="url(#clip0_10_275)">
<path d="M20.2025 4.11415C19.5067 4.42248 18.7592 4.63082 17.9733 4.72498C18.7842 4.23981 19.3908 3.4762 19.68 2.57665C18.9182 3.02914 18.0844 3.34765 17.215 3.51832C16.6303 2.89404 15.8559 2.48025 15.0119 2.34121C14.168 2.20217 13.3017 2.34564 12.5477 2.74936C11.7936 3.15308 11.194 3.79445 10.8418 4.5739C10.4896 5.35335 10.4046 6.22727 10.6 7.05998C9.0564 6.98248 7.54635 6.58127 6.16784 5.8824C4.78934 5.18353 3.57319 4.20262 2.59832 3.00332C2.26499 3.57832 2.07332 4.24498 2.07332 4.95498C2.07295 5.59415 2.23035 6.22352 2.53155 6.78726C2.83276 7.351 3.26846 7.83168 3.79999 8.18665C3.18355 8.16703 2.58072 8.00047 2.04166 7.70082V7.75081C2.04159 8.64727 2.35168 9.51613 2.91931 10.21C3.48693 10.9038 4.27713 11.3799 5.15582 11.5575C4.58398 11.7122 3.98444 11.735 3.40249 11.6241C3.6504 12.3955 4.13332 13.07 4.78363 13.5533C5.43394 14.0365 6.21909 14.3043 7.02916 14.3191C5.65402 15.3987 3.95573 15.9842 2.20749 15.9816C1.89781 15.9817 1.58839 15.9636 1.28082 15.9275C3.05539 17.0685 5.12111 17.674 7.23082 17.6716C14.3725 17.6716 18.2767 11.7566 18.2767 6.62665C18.2767 6.45998 18.2725 6.29165 18.265 6.12498C19.0244 5.57579 19.6799 4.89573 20.2008 4.11665L20.2025 4.11415Z" fill="black"/>
</g>
<defs>
<clipPath id="clip0_10_275">
<rect width="20" height="20" fill="white" transform="translate(0.5)"/>
</clipPath>
</defs>
</svg>
