<svg width="40" height="66" viewBox="0 0 40 66" fill="none" xmlns="http://www.w3.org/2000/svg">
<path d="M19.522 1.84081e-06C18.9877 -0.000182593 18.4653 0.157332 18.0201 0.452805C17.5749 0.748279 17.2269 1.16857 17.0195 1.661L0.137287 41.7285C0.0252372 41.9944 -0.0193005 42.2838 0.00764421 42.5711C0.0345889 42.8583 0.132179 43.1345 0.291717 43.3749C0.451255 43.6153 0.667785 43.8125 0.922013 43.9489C1.17624 44.0853 1.46027 44.1567 1.74879 44.1567H10.6065C11.1408 44.1569 11.6633 43.9994 12.1085 43.7039C12.5536 43.4085 12.9017 42.9882 13.109 42.4958L29.9858 2.42825C30.0979 2.16217 30.1424 1.87246 30.1154 1.58498C30.0883 1.2975 29.9905 1.0212 29.8306 0.780733C29.6707 0.540269 29.4538 0.343123 29.1992 0.206892C28.9446 0.0706611 28.6603 -0.000417048 28.3715 1.84081e-06H19.5193H19.522ZM28.9765 21.8433C28.4422 21.8431 27.9198 22.0006 27.4746 22.2961C27.0294 22.5915 26.6814 23.0118 26.474 23.5043L9.59729 63.5718C9.11054 64.7268 9.95479 66 11.2088 66H20.061C20.5953 66.0002 21.1178 65.8427 21.563 65.5472C22.0081 65.2517 22.3562 64.8314 22.5635 64.339L39.443 24.2715C39.5551 24.0056 39.5996 23.7162 39.5727 23.4289C39.5457 23.1417 39.4481 22.8655 39.2886 22.6251C39.1291 22.3847 38.9125 22.1875 38.6583 22.0511C38.4041 21.9147 38.1201 21.8433 37.8315 21.8433H28.9765V21.8433Z" fill="#111111"/>
</svg>
