<svg width="40" height="66" viewBox="0 0 40 66" fill="none" xmlns="http://www.w3.org/2000/svg">
<path d="M19.7305 1.84081e-06C19.1962 -0.000182593 18.6738 0.157332 18.2286 0.452805C17.7834 0.748279 17.4354 1.16857 17.228 1.661L0.345784 41.7285C0.233733 41.9944 0.189196 42.2838 0.21614 42.5711C0.243085 42.8583 0.340675 43.1345 0.500213 43.3749C0.659751 43.6153 0.876281 43.8125 1.13051 43.9489C1.38474 44.0853 1.66877 44.1567 1.95728 44.1567H10.815C11.3493 44.1569 11.8718 43.9994 12.317 43.7039C12.7621 43.4085 13.1102 42.9882 13.3175 42.4958L30.1943 2.42825C30.3064 2.16217 30.3509 1.87246 30.3239 1.58498C30.2968 1.2975 30.1989 1.0212 30.0391 0.780733C29.8792 0.540269 29.6623 0.343123 29.4077 0.206892C29.1531 0.0706611 28.8688 -0.000417048 28.58 1.84081e-06H19.7278H19.7305ZM29.185 21.8433C28.6507 21.8431 28.1283 22.0006 27.6831 22.2961C27.2379 22.5915 26.8899 23.0118 26.6825 23.5043L9.80578 63.5718C9.31903 64.7268 10.1633 66 11.4173 66H20.2695C20.8038 66.0002 21.3263 65.8427 21.7715 65.5472C22.2166 65.2517 22.5647 64.8314 22.772 64.339L39.6515 24.2715C39.7636 24.0056 39.8081 23.7162 39.7812 23.4289C39.7542 23.1417 39.6566 22.8655 39.4971 22.6251C39.3376 22.3847 39.121 22.1875 38.8668 22.0511C38.6126 21.9147 38.3285 21.8433 38.04 21.8433H29.185Z" fill="#E63103"/>
</svg>
